<svg xmlns="http://www.w3.org/2000/svg" width="50.794" height="70.207" viewBox="0 0 50.794 70.207">
  <g id="Group_108" data-name="Group 108" transform="translate(-1726.122 -8780.897)">
    <path id="Path_142" data-name="Path 142" d="M1744.959,8836.974a3.058,3.058,0,0,1-1.084,1.548c-.607.626-1.228,1.237-1.844,1.858-2.661,2.656-3.091,2.622-5.365-.354-.353-.463-.764-.912-.282-1.447a1.018,1.018,0,0,1,1.663.009c1.366,1.936,2.278.741,3.286-.353a16.022,16.022,0,0,1,2.064-1.964C1744.243,8835.636,1744.663,8836.271,1744.959,8836.974Z" fill="#fffffe"/>
    <path id="Path_143" data-name="Path 143" d="M1745.064,8827.487a13.24,13.24,0,0,1-.9,1.188c-.707.75-1.447,1.472-2.178,2.2-2.579,2.585-3.148,2.523-5.36-.463-.363-.487-.7-.927-.2-1.452a.964.964,0,0,1,1.49-.048c1.557,2.159,2.541.693,3.626-.468.544-.578,1.122-1.123,1.71-1.658.3-.267.688-.5,1.065-.205A5.276,5.276,0,0,1,1745.064,8827.487Z" fill="#fffffe"/>
    <path id="Path_144" data-name="Path 144" d="M1736.595,8811.273c-.359-.5-.66-.941-.149-1.447a.989.989,0,0,1,1.5,0c1.585,2.226,2.536.55,3.611-.512.564-.554,1.127-1.117,1.715-1.652.3-.272.688-.492,1.06-.187a5.437,5.437,0,0,1,.717.928c-.344.438-.607.836-.932,1.175-.707.75-1.447,1.471-2.173,2.207C1739.423,8814.326,1738.754,8814.254,1736.595,8811.273Z" fill="#fffffe"/>
    <path id="Path_145" data-name="Path 145" d="M1744.62,8817.235c.268.306.492.726.172,1.061-1.581,1.667-3.2,3.3-4.82,4.935-.1.1-.291.1-.444.134-.64,0-3.507-2.9-3.33-3.463.344-1.09,1.28-1.138,1.815-.426,1.405,1.877,2.284.778,3.3-.34a28.263,28.263,0,0,1,2.05-1.992A.812.812,0,0,1,1744.62,8817.235Z" fill="#fffffe"/>
    <path id="Path_146" data-name="Path 146" d="M1766.241,8839.549c.076,1.055-.712,1.061-1.457,1.061h-7.4q-3.705,0-7.4-.006c-.64,0-1.366.054-1.433-.845-.076-1.061.717-1.056,1.457-1.056q7.4,0,14.8,0C1765.453,8838.7,1766.179,8838.655,1766.241,8839.549Z" fill="#fffffe"/>
    <path id="Path_147" data-name="Path 147" d="M1748.551,8810.4c.067-.9.817-.817,1.448-.817q7.395-.013,14.794,0c.631,0,1.376-.091,1.448.817.081,1.036-.679,1.084-1.443,1.084q-3.819-.006-7.634,0-3.582,0-7.16,0C1749.244,8811.488,1748.48,8811.44,1748.551,8810.4Z" fill="#fffffe"/>
    <path id="Path_148" data-name="Path 148" d="M1766.246,8820.268c-.01,1.071-.908.923-1.577.928-2.455.028-4.911.015-7.366.015-2.379,0-4.758.014-7.132-.01-.674-.01-1.567.158-1.61-.9-.038-.955.664-1.137,1.452-1.137q7.374.007,14.742,0C1765.539,8819.165,1766.255,8819.323,1766.246,8820.268Z" fill="#fffffe"/>
    <path id="Path_149" data-name="Path 149" d="M1766.269,8829.851c.039,1.085-.831,1.176-1.681,1.176-2.465-.01-4.93,0-7.4,0-2.307,0-4.615-.006-6.922,0-.831,0-1.729-.02-1.739-1.118,0-.951.836-1.057,1.567-1.062q7.281-.021,14.561,0C1765.39,8828.843,1766.236,8828.905,1766.269,8829.851Z" fill="#fffffe"/>
    <path id="Path_150" data-name="Path 150" d="M1776.908,8829.866c0-10.261.014-20.522-.01-30.779-.009-3.234-1.108-4.3-4.27-4.323-2.15-.01-4.3.015-6.44-.014-.5-.01-1.237.267-1.366-.54-.521-3.344-3.062-2.847-5.341-2.852-2.928-.011-2.928-.006-2.116-2.8a5.912,5.912,0,0,0-2.427-6.683,5.882,5.882,0,0,0-8.746,6.941c.931,2.53.931,2.53-1.849,2.541-.478,0-.956.019-1.428-.006-1.916-.1-3.531.254-3.9,2.519-.168,1.041-.946.888-1.644.888-2.388.01-4.772-.009-7.156.01-2.976.028-4.089,1.171-4.089,4.2q-.014,11.93-.005,23.861t.005,23.861c0,3.263,1.142,4.4,4.433,4.4q20.874.016,41.751,0c3.406,0,4.572-1.132,4.591-4.532C1776.927,8841,1776.913,8835.431,1776.908,8829.866Zm-24.941-44.575a1.575,1.575,0,0,1,1.447,1.777,1.46,1.46,0,0,1-1.7,1.558,1.568,1.568,0,0,1-1.629-1.668A1.635,1.635,0,0,1,1751.967,8785.291Zm20.03,63.883q-20.508-.1-41.015,0c-2.322.011-3-.841-2.991-3.1q.116-23.244.005-46.5c-.01-2.15.659-3.105,2.871-2.919,1.423.12,2.861,0,4.29.029s3.2-.621,3.133,2.034c-.023.937,1.161,1.323,2.241,1.318q11.322-.042,22.652,0c1.553,0,2.556-.741,2.461-2.222-.091-1.386.659-1.132,1.418-1.132,1.83-.006,3.66.066,5.484-.02,1.778-.086,2.356.688,2.346,2.408-.057,7.949-.024,15.9-.024,23.846,0,7.792-.067,15.583.043,23.37C1774.94,8848.525,1774.137,8849.184,1772,8849.174Z" fill="#fffffe"/>
    <path id="Path_151" data-name="Path 151" d="M1744.959,8836.974a3.058,3.058,0,0,1-1.084,1.548c-.607.626-1.228,1.237-1.844,1.858-2.661,2.656-3.091,2.622-5.365-.354-.353-.463-.764-.912-.282-1.447a1.018,1.018,0,0,1,1.663.009c1.366,1.936,2.278.741,3.286-.353a16.022,16.022,0,0,1,2.064-1.964C1744.243,8835.636,1744.663,8836.271,1744.959,8836.974Z" fill="#cb601e"/>
    <path id="Path_152" data-name="Path 152" d="M1745.064,8827.487a13.24,13.24,0,0,1-.9,1.188c-.707.75-1.447,1.472-2.178,2.2-2.579,2.585-3.148,2.523-5.36-.463-.363-.487-.7-.927-.2-1.452a.964.964,0,0,1,1.49-.048c1.557,2.159,2.541.693,3.626-.468.544-.578,1.122-1.123,1.71-1.658.3-.267.688-.5,1.065-.205A5.276,5.276,0,0,1,1745.064,8827.487Z" fill="#cb601e"/>
    <path id="Path_153" data-name="Path 153" d="M1736.595,8811.273c-.359-.5-.66-.941-.149-1.447a.989.989,0,0,1,1.5,0c1.585,2.226,2.536.55,3.611-.512.564-.554,1.127-1.117,1.715-1.652.3-.272.688-.492,1.06-.187a5.437,5.437,0,0,1,.717.928c-.344.438-.607.836-.932,1.175-.707.75-1.447,1.471-2.173,2.207C1739.423,8814.326,1738.754,8814.254,1736.595,8811.273Z" fill="#cb601e"/>
    <path id="Path_154" data-name="Path 154" d="M1744.62,8817.235c.268.306.492.726.172,1.061-1.581,1.667-3.2,3.3-4.82,4.935-.1.1-.291.1-.444.134-.64,0-3.507-2.9-3.33-3.463.344-1.09,1.28-1.138,1.815-.426,1.405,1.877,2.284.778,3.3-.34a28.263,28.263,0,0,1,2.05-1.992A.812.812,0,0,1,1744.62,8817.235Z" fill="#cb601e"/>
    <path id="Path_155" data-name="Path 155" d="M1766.241,8839.549c.076,1.055-.712,1.061-1.457,1.061h-7.4q-3.705,0-7.4-.006c-.64,0-1.366.054-1.433-.845-.076-1.061.717-1.056,1.457-1.056q7.4,0,14.8,0C1765.453,8838.7,1766.179,8838.655,1766.241,8839.549Z" fill="#cb601e"/>
    <path id="Path_156" data-name="Path 156" d="M1748.551,8810.4c.067-.9.817-.817,1.448-.817q7.395-.013,14.794,0c.631,0,1.376-.091,1.448.817.081,1.036-.679,1.084-1.443,1.084q-3.819-.006-7.634,0-3.582,0-7.16,0C1749.244,8811.488,1748.48,8811.44,1748.551,8810.4Z" fill="#cb601e"/>
    <path id="Path_157" data-name="Path 157" d="M1766.246,8820.268c-.01,1.071-.908.923-1.577.928-2.455.028-4.911.015-7.366.015-2.379,0-4.758.014-7.132-.01-.674-.01-1.567.158-1.61-.9-.038-.955.664-1.137,1.452-1.137q7.374.007,14.742,0C1765.539,8819.165,1766.255,8819.323,1766.246,8820.268Z" fill="#cb601e"/>
    <path id="Path_158" data-name="Path 158" d="M1748.532,8829.9c0-.951.836-1.057,1.567-1.062q7.281-.021,14.561,0c.73,0,1.576.063,1.609,1.008.039,1.085-.831,1.176-1.681,1.176-2.465-.01-4.93,0-7.4,0-2.307,0-4.615-.006-6.922,0C1749.44,8831.026,1748.542,8831,1748.532,8829.9Z" fill="#cb601e"/>
    <path id="Path_159" data-name="Path 159" d="M1766.269,8829.851c.039,1.085-.831,1.176-1.681,1.176-2.465-.01-4.93,0-7.4,0-2.307,0-4.615-.006-6.922,0-.831,0-1.729-.02-1.739-1.118,0-.951.836-1.057,1.567-1.062q7.281-.021,14.561,0C1765.39,8828.843,1766.236,8828.905,1766.269,8829.851Z" fill="#f8ece4"/>
    <path id="Path_160" data-name="Path 160" d="M1766.241,8810.4c.081,1.036-.679,1.084-1.443,1.084q-3.819-.006-7.634,0-3.582,0-7.16,0c-.76,0-1.524-.048-1.453-1.084.067-.9.817-.817,1.448-.817q7.395-.013,14.794,0C1765.424,8809.587,1766.169,8809.5,1766.241,8810.4Z" fill="#fffdfd"/>
    <path id="Path_161" data-name="Path 161" d="M1766.241,8839.549c.076,1.055-.712,1.061-1.457,1.061h-7.4q-3.705,0-7.4-.006c-.64,0-1.366.054-1.433-.845-.076-1.061.717-1.056,1.457-1.056q7.4,0,14.8,0C1765.453,8838.7,1766.179,8838.655,1766.241,8839.549Z" fill="#fffefd"/>
    <path id="Path_162" data-name="Path 162" d="M1766.246,8820.268c-.01,1.071-.908.923-1.577.928-2.455.028-4.911.015-7.366.015-2.379,0-4.758.014-7.132-.01-.674-.01-1.567.158-1.61-.9-.038-.955.664-1.137,1.452-1.137q7.374.007,14.742,0C1765.539,8819.165,1766.255,8819.323,1766.246,8820.268Z" fill="#fdf6f2"/>
    <path id="Path_163" data-name="Path 163" d="M1745.05,8808.4c-.344.438-.607.836-.932,1.175-.707.75-1.447,1.471-2.173,2.207-2.522,2.546-3.191,2.474-5.35-.507-.359-.5-.66-.941-.149-1.447a.989.989,0,0,1,1.5,0c1.585,2.226,2.536.55,3.611-.512.564-.554,1.127-1.117,1.715-1.652.3-.272.688-.492,1.06-.187A5.437,5.437,0,0,1,1745.05,8808.4Z" fill="#fdf7f4"/>
    <path id="Path_164" data-name="Path 164" d="M1744.792,8818.3c-1.581,1.667-3.2,3.3-4.82,4.935-.1.1-.291.1-.444.134-.64,0-3.507-2.9-3.33-3.463.344-1.09,1.28-1.138,1.815-.426,1.405,1.877,2.284.778,3.3-.34a28.263,28.263,0,0,1,2.05-1.992.812.812,0,0,1,1.256.092C1744.888,8817.541,1745.112,8817.961,1744.792,8818.3Z" fill="#fcf6f2"/>
    <path id="Path_165" data-name="Path 165" d="M1745.064,8827.487a13.24,13.24,0,0,1-.9,1.188c-.707.75-1.447,1.472-2.178,2.2-2.579,2.585-3.148,2.523-5.36-.463-.363-.487-.7-.927-.2-1.452a.964.964,0,0,1,1.49-.048c1.557,2.159,2.541.693,3.626-.468.544-.578,1.122-1.123,1.71-1.658.3-.267.688-.5,1.065-.205A5.276,5.276,0,0,1,1745.064,8827.487Z" fill="#fcf6f2"/>
    <path id="Path_166" data-name="Path 166" d="M1744.959,8836.974a3.058,3.058,0,0,1-1.084,1.548c-.607.626-1.228,1.237-1.844,1.858-2.661,2.656-3.091,2.622-5.365-.354-.353-.463-.764-.912-.282-1.447a1.018,1.018,0,0,1,1.663.009c1.366,1.936,2.278.741,3.286-.353a16.022,16.022,0,0,1,2.064-1.964C1744.243,8835.636,1744.663,8836.271,1744.959,8836.974Z" fill="#fcf6f3"/>
  </g>
</svg>
