<svg xmlns="http://www.w3.org/2000/svg" width="43.08" height="58.771" viewBox="0 0 43.08 58.771">
  <g id="Group_107" data-name="Group 107" transform="translate(-1203.384 -8786.288)">
    <path id="Path_128" data-name="Path 128" d="M1224.728,8845.055c-2.569,0-5.138,0-7.707,0-2.8-.008-4.1-2.044-2.855-4.52a1.193,1.193,0,0,0,0-1.215,2.391,2.391,0,0,1,.277-2.741,2,2,0,0,0,.28-2.289,18.529,18.529,0,0,0-2.8-5.091,46.148,46.148,0,0,1-8.014-17.859c-2.7-12.751,5.32-22.289,16.1-24.522a29.4,29.4,0,0,1,4.335-.521c1.093-.062,1.5.4,1.49,1.483-.03,4.605.025,9.213-.038,13.817-.016,1.125.328,1.421,1.417,1.4,2.593-.06,2.594-.007,2.594-2.57,0-.532-.025-1.064.006-1.594a1.427,1.427,0,0,0-.674-1.424,2.806,2.806,0,0,1-.509-4.28,2.894,2.894,0,0,1,4.339-.008,2.861,2.861,0,0,1-.536,4.3,1.456,1.456,0,0,0-.726,1.4c.047,1.016.047,2.037,0,3.055-.033.763.168,1.106,1.025,1.117,1.824.02,1.9.068,1.909,1.933.011,1.413.978.946,1.669.983.662.037,1.5.256,1.417-.946-.076-1.1.17-2.139-1.086-2.975-1.351-.9-1.218-2.93-.036-4.09a2.906,2.906,0,0,1,4.062-.024c1.126,1.1,1.244,3.27-.053,4.129-1.115.738-1.007,1.621-1,2.606.019,3.351.2,3.238-3.129,3.229-2.024-.006-1.794-.335-1.82,1.84,0,.4.023.8,0,1.2-.043.671.212.951.918.931,1.46-.041,2.923-.036,4.384,0a1.26,1.26,0,0,0,1.17-.66,2.849,2.849,0,0,1,4.364-.56,2.9,2.9,0,0,1,.024,4.249,2.849,2.849,0,0,1-4.3-.443,1.584,1.584,0,0,0-1.526-.723c-1.327.038-2.659.054-3.985,0-.806-.036-1.063.221-1.071,1.04-.017,1.9-.062,1.9-1.966,1.906-.576,0-1.153.029-1.727-.008-.753-.048-1.215.029-1.209,1.024.007.966.421,1.125,1.2,1.051.263-.024.531,0,.8,0,1.875.006,1.993.1,1.982,1.925a1.747,1.747,0,0,0,.775,1.646,2.823,2.823,0,0,1,.323,4.306,2.912,2.912,0,0,1-4.158-.047,2.836,2.836,0,0,1,.334-4.313c.413-.326,1-.54.791-1.2-.234-.731-.9-.3-1.363-.382a7.144,7.144,0,0,0-1.193-.015c-.928,0-1.389-.442-1.334-1.4.029-.485-.037-.978.014-1.46.087-.838-.177-1.162-1.086-1.152-.861.009-1.021.323-1.018,1.095q.04,8.3,0,16.609c0,.814.26,1.085,1.063,1.068,1.992-.039,3.987-.048,5.979,0,2.45.061,3.6,1.763,2.723,4.049a1.271,1.271,0,0,0,.122,1.2c1.183,2.322-.112,4.438-2.728,4.455C1230.22,8845.069,1227.474,8845.054,1224.728,8845.055Zm-.8-15.147c0-1.55.007-3.1-.005-4.652,0-.37.129-.9-.482-.9-.97,0-1.1-.7-1.3-1.394-.335-1.183-.67-1.312-1.4-.427a1.56,1.56,0,0,1-2.306.4c-.6-.365-1.218-.713-1.824-1.074-.771-.46-1.172-1.025-.712-1.972.145-.3.409-.69.034-1.1-.429-.469-.869-.155-1.208,0a1.325,1.325,0,0,1-1.88-.676c-.349-.562-.667-1.144-1.018-1.7a1.636,1.636,0,0,1,.358-2.527c.762-.561.723-1.171-.313-1.277-1.489-.154-1.8-1.017-1.657-2.3a9.024,9.024,0,0,0,0-1.594c-.068-1.021.349-1.609,1.4-1.681.411-.028.8-.1.981-.54.243-.6-.3-.782-.6-1.033a1.359,1.359,0,0,1-.335-1.984c.253-.414.456-.857.689-1.284.609-1.117,1.254-1.984,2.8-1.325.792.337,1.189-.228.8-1.021-.568-1.159-.073-1.831.917-2.352.274-.145.523-.332.791-.488,1.134-.661,2.206-1.307,3.285.2.45.629,1.011.4,1.153-.434s.365-1.566,1.4-1.646c.536-.042.424-.475.426-.807.007-1.729-.019-3.456.015-5.184.013-.682-.159-.989-.9-.841-.821.165-1.659.242-2.484.388a18.147,18.147,0,0,0-14.84,21.961,44.613,44.613,0,0,0,7.748,17.4,17.023,17.023,0,0,1,3.321,6.573.792.792,0,0,0,.921.719c1.772-.021,3.545-.029,5.316,0,.677.011.942-.211.922-.914C1223.9,8832.921,1223.929,8831.413,1223.929,8829.907Zm0-31.312c-1.8,1.123-2.827,1.146-4.333.025-.589-.439-.875.106-1.282.257-.587.216-.414.61-.288,1.074a2.475,2.475,0,0,1-2.848,2.966c-.618-.178-.941-.139-1.3.429-.389.619-.256.969.237,1.448a2.466,2.466,0,0,1-1.035,3.861c-.656.171-.963.438-.933,1.168.026.647.232.854.882,1.01a2.467,2.467,0,0,1,1.033,3.976c-.481.455-.559.785-.208,1.338.318.5.535.731,1.234.5a2.435,2.435,0,0,1,2.946,2.834.991.991,0,0,0,.523,1.361c.609.4.95.189,1.324-.283.309-.39.7-.764,1.234-.616.942.259,1.98.275,2.756,1.086.123-2.272.123-2.272-1.843-2.948a8.727,8.727,0,0,1-5.891-8.558,8.591,8.591,0,0,1,6.5-8.219c1.163-.275,1.426-.74,1.3-1.753A7.977,7.977,0,0,1,1223.93,8798.595Zm8.812,11.291c0-1.372-.016-2.745.007-4.117.01-.569-.081-.908-.782-.893-1.769.039-3.541.032-5.311,0-.632-.011-.848.216-.843.845.024,2.7.028,5.4,0,8.1-.008.706.254.92.933.906,1.681-.034,3.365-.048,5.046,0,.779.023.991-.269.965-1C1232.709,8812.455,1232.742,8811.17,1232.742,8809.886Zm-8.813-.05c0-1.987-.021-3.974.012-5.96.012-.725-.182-.922-.917-.725a6.919,6.919,0,0,0-4.972,6.589,6.84,6.84,0,0,0,4.9,6.623c.723.2,1.018.168.994-.7C1223.892,8813.722,1223.93,8811.778,1223.929,8809.836Zm.931,31.237c-2.568,0-5.137,0-7.7,0-.764,0-1.508.081-1.511,1.05s.733,1.063,1.5,1.062q7.773-.007,15.545,0c.776,0,1.524-.115,1.523-1.046,0-.911-.725-1.076-1.514-1.07C1230.086,8841.082,1227.473,8841.073,1224.86,8841.073Zm.046-3.8q-3.781,0-7.564,0c-.663,0-1.452-.086-1.443.9.008.88.678,1.023,1.4,1.022q7.631,0,15.26,0c.747,0,1.4-.213,1.4-1.045s-.694-.886-1.356-.883C1230.036,8837.279,1227.471,8837.275,1224.906,8837.274Zm5.785-43.223c-.508.171-.945.465-.88,1.089a.925.925,0,0,0,1.074.889.9.9,0,0,0,.842-.984C1231.708,8794.413,1231.306,8794.141,1230.691,8794.052Zm8.039,4.975c-.684,0-1.02.327-1.048.878a.861.861,0,0,0,.942,1.01.891.891,0,0,0,.964-1.008A.852.852,0,0,0,1238.73,8799.026Zm4.578,12.771a.822.822,0,0,0-.742.89.911.911,0,0,0,1,.978.86.86,0,0,0,.9-1.041C1244.42,8812.045,1244.062,8811.777,1243.308,8811.8Zm-10.287,13.6a.839.839,0,0,0,.7-.882.907.907,0,0,0-.993-.987.874.874,0,0,0-.935,1.023C1231.833,8825.088,1232.18,8825.424,1233.021,8825.4Z" fill="#fff"/>
    <path id="Path_129" data-name="Path 129" d="M1246.4,8807.03c-.116.375.208,1.241-.884,1.021-.621-.126-1.157-.152-1.085-1.088.075-.977.6-.971,1.316-.986C1246.489,8805.962,1246.543,8806.341,1246.4,8807.03Z" fill="#fff"/>
    <path id="Path_130" data-name="Path 130" d="M1239.423,8791.478c.53.324,1.18.7,1.265,1.245.081.53-.608,1.084-1.068,1.152a1.237,1.237,0,0,1-1.251-1.087C1238.336,8792.293,1238.915,8791.83,1239.423,8791.478Z" fill="#fff"/>
    <path id="Path_131" data-name="Path 131" d="M1243.959,8818.385c-.524.431-.211,1.46-1.078,1.326-.439-.068-1.353-.084-1.214-.921.076-.46.083-1.3.812-1.249A1.67,1.67,0,0,1,1243.959,8818.385Z" fill="#fff"/>
    <path id="Path_132" data-name="Path 132" d="M1236.667,8827.728c.467.413,1.264.554,1.273,1.1.008.515-.366,1.289-1,1.324-.505.027-1.251-.4-1.264-.944A2.169,2.169,0,0,1,1236.667,8827.728Z" fill="#fff"/>
    <path id="Path_133" data-name="Path 133" d="M1227.888,8787.686c.07-.629-.051-1.3.715-1.078.458.134,1.409-.242,1.266.748-.068.467.207,1.449-.833,1.271C1228.5,8788.533,1227.51,8788.647,1227.888,8787.686Z" fill="#fff"/>
    <path id="Path_134" data-name="Path 134" d="M1237.571,8790.311c-.472.383-.491,1.273-1.125,1.178-.483-.074-1.364-.3-1.241-1.048.071-.428.255-1.283.964-1.182A1.8,1.8,0,0,1,1237.571,8790.311Z" fill="#fff"/>
    <path id="Path_135" data-name="Path 135" d="M1245.241,8799.4c-.158.791-.874.841-1.328.885-.838.082-.885-.858-.918-1.316-.047-.64.805-.83,1.269-.867C1245.087,8798.039,1244.82,8799.021,1245.241,8799.4Z" fill="#fff"/>
    <path id="Path_136" data-name="Path 136" d="M1240.373,8825.525c-.432.5-.563,1.359-1.183,1.351-.473-.006-1.311-.4-1.252-1.034.043-.463.371-1.29,1.092-1.209A2.1,2.1,0,0,1,1240.373,8825.525Z" fill="#fff"/>
    <path id="Path_137" data-name="Path 137" d="M1232.505,8787.512c.389.407,1.365.1,1.288.925-.044.475-.091,1.405-.963,1.249-.431-.075-1.333-.06-1.139-.9C1231.789,8788.36,1231.643,8787.584,1232.505,8787.512Z" fill="#fff"/>
    <path id="Path_138" data-name="Path 138" d="M1242.034,8796.979c-.57-.348-1.048-.851-1.017-1.339a1.247,1.247,0,0,1,1.287-1.033,1.4,1.4,0,0,1,.988,1.367C1243.248,8796.512,1242.452,8796.623,1242.034,8796.979Z" fill="#fff"/>
    <path id="Path_139" data-name="Path 139" d="M1241.216,8823.546c-.368-.535-1.415-.344-1.217-1.194.1-.432.2-1.307.968-1.155.455.09,1.3.164,1.217.877A1.836,1.836,0,0,1,1241.216,8823.546Z" fill="#fff"/>
    <path id="Path_140" data-name="Path 140" d="M1246.236,8803.221c.058.991-.755.765-1.21.845-.933.162-.716-.716-.827-1.175-.234-.969.7-.765,1.128-.86C1246.386,8801.794,1245.9,8802.86,1246.236,8803.221Z" fill="#fff"/>
    <path id="Path_141" data-name="Path 141" d="M1235.942,8832.286c-.376.389-.282,1.249-.931,1.256-.472,0-1.349-.164-1.37-.711s.2-1.453.949-1.5A1.512,1.512,0,0,1,1235.942,8832.286Z" fill="#fff"/>
  </g>
</svg>
