<svg xmlns="http://www.w3.org/2000/svg" width="55.817" height="69.867" viewBox="0 0 55.817 69.867">
  <g id="Group_106" data-name="Group 106" transform="translate(-168.689 -8779.074)">
    <path id="Path_121" data-name="Path 121" d="M168.7,8807.092q0-7.395,0-14.789c0-1.106.095-1.179,1.177-1.423a50.174,50.174,0,0,0,9.135-3.3c5.637-2.487,11.126-5.274,16.543-8.2a1.921,1.921,0,0,1,2.067.006,203.954,203.954,0,0,0,20.179,9.72,29.182,29.182,0,0,0,5.81,1.823c.767.134.868.658.867,1.315q-.015,11.225-.007,22.453c0,1.729-.077,3.463.015,5.187.256,4.8-1.507,8.871-4.417,12.537A50.979,50.979,0,0,1,206.72,8843.7a85.951,85.951,0,0,1-9.307,5.029,1.713,1.713,0,0,1-1.6.027,74.977,74.977,0,0,1-18.139-11.534c-3.339-2.973-6.258-6.288-7.922-10.532a15.2,15.2,0,0,1-1.058-5.66C168.708,8816.383,168.7,8811.737,168.7,8807.092Zm54.029.419c0-4.723-.011-9.445.014-14.169,0-.6-.174-.846-.763-.982a35.757,35.757,0,0,1-5.333-1.812,212.474,212.474,0,0,1-19.276-9.288,1.406,1.406,0,0,0-1.535-.025q-5.74,3.117-11.647,5.913a77.888,77.888,0,0,1-12.96,5.194c-.681.183-.8.494-.8,1.116q.024,13.781.008,27.565a13.456,13.456,0,0,0,.989,5.128c1.65,4.052,4.508,7.181,7.73,10.011a74.135,74.135,0,0,0,16.9,10.763,1.116,1.116,0,0,0,1.082-.02c2.042-.985,4.056-2.023,6.02-3.155,5.592-3.225,10.852-6.874,15.052-11.86a17.307,17.307,0,0,0,4.545-12.145C222.6,8815.672,222.723,8811.589,222.724,8807.511Z" fill="#fff"/>
    <path id="Path_122" data-name="Path 122" d="M216.886,8818.309c0-.94-.015-1.793.006-2.644a.789.789,0,0,1,.816-.852.759.759,0,0,1,.856.8c-.04,2.593.278,5.211-.594,7.749a20.328,20.328,0,0,1-5.55,8.08,56.96,56.96,0,0,1-15.288,9.962,1.124,1.124,0,0,1-1.033.027c-6.309-2.985-12.264-6.492-17.019-11.723a15.614,15.614,0,0,1-4.422-8.838c-.188-1.722-.051-3.455-.067-5.183a.785.785,0,0,1,.865-.875c.556.017.816.388.819.93.005,1.084.046,2.17-.006,3.252-.162,3.41,1.271,6.2,3.348,8.741a39.975,39.975,0,0,0,10.339,8.52,61.214,61.214,0,0,0,6.048,3.262,1.057,1.057,0,0,0,1.017.069c5.8-2.793,11.247-6.088,15.666-10.855a14.744,14.744,0,0,0,4.1-7.575A22.03,22.03,0,0,0,216.886,8818.309Z" fill="#fff"/>
    <path id="Path_123" data-name="Path 123" d="M174.583,8801.957c0-1.7.006-3.407,0-5.11a.923.923,0,0,1,.784-1.056,52.665,52.665,0,0,0,10.773-4.185c3.22-1.509,6.4-3.1,9.5-4.841a1.779,1.779,0,0,1,1.931.028,147.6,147.6,0,0,0,16.516,7.878,18.4,18.4,0,0,0,3.544,1.069c.715.121.966.525.961,1.24-.023,3.328-.013,6.657-.008,9.986,0,.594-.1,1.107-.827,1.149-.6.035-.872-.345-.873-1.181q-.006-4.488,0-8.979c0-.332.046-.617-.427-.751a77.668,77.668,0,0,1-13.011-5.467c-2.08-1.021-4.138-2.09-6.183-3.18a1.239,1.239,0,0,0-1.336-.014,159.685,159.685,0,0,1-15.529,7.432,23.88,23.88,0,0,1-3.439,1.151.744.744,0,0,0-.69.881c.033,2.941.016,5.883.014,8.825a1.568,1.568,0,0,1-.142.9.784.784,0,0,1-.937.358.862.862,0,0,1-.62-.953Q174.587,8804.55,174.583,8801.957Z" fill="#fff"/>
    <path id="Path_124" data-name="Path 124" d="M197.226,8821.857c-.012.137.039.369-.054.487-.745.94-.367,1.709.158,2.63a2.368,2.368,0,0,1-.844,2.953c-.735.563-1.484,1.11-2.249,1.632a2.56,2.56,0,0,1-3.851-1.01c-.164-.331-.27-.422-.672-.331a2.477,2.477,0,0,1-3.252-2.326.691.691,0,0,0-.5-.65,2.481,2.481,0,0,1-1.437-3.179.69.69,0,0,0-.259-.891,2.529,2.529,0,0,1,.169-4.013q1.824-1.364,3.7-2.653a2.531,2.531,0,0,1,3.947,1.308.578.578,0,0,0,.646.469,2.413,2.413,0,0,1,2.508,2.472.671.671,0,0,0,.471.671A2.458,2.458,0,0,1,197.226,8821.857Zm-3.579-3.058a.927.927,0,0,0-1.5-.759c-1.932,1.322-3.839,2.681-5.741,4.045a.881.881,0,0,0-.236,1.349.914.914,0,0,0,1.416.177q2.772-1.964,5.546-3.921A1,1,0,0,0,193.647,8818.8Zm1.993,2.952a.954.954,0,0,0-1.509-.768c-1.889,1.295-3.751,2.629-5.618,3.955a.964.964,0,1,0,1.108,1.573q2.784-1.945,5.546-3.923A.98.98,0,0,0,195.64,8821.752Zm-9.656-1.557a.744.744,0,0,0,.319-.066c1.361-.965,2.731-1.919,4.058-2.929a.808.808,0,0,0,.051-1.187.827.827,0,0,0-1.155-.291c-1.36.923-2.688,1.893-4.01,2.867a.794.794,0,0,0-.214.986A.952.952,0,0,0,185.984,8820.2Zm6.734,8.25a.733.733,0,0,0,.259-.054,13.908,13.908,0,0,0,2.772-2.034.764.764,0,0,0-.06-1.114c-.295-.324-.665-.553-1.085-.27-.868.588-1.721,1.2-2.558,1.835a.835.835,0,0,0-.209,1.053A.958.958,0,0,0,192.718,8828.445Z" fill="#fff"/>
    <path id="Path_125" data-name="Path 125" d="M193.508,8802.521c1.72.14,3.608.212,5.469.473a9.923,9.923,0,0,1,3.111,1.322,1.7,1.7,0,0,0,2.32-.2,9.662,9.662,0,0,1,1.255-.9c.4-.3,1.005-.475.6-1.221-.132-.243.129-.518.38-.692,1.1-.767,2.189-1.547,3.29-2.311a.771.771,0,0,1,1.206.2.757.757,0,0,1-.274,1.133c-.76.534-1.519,1.07-2.305,1.563-.393.247-.374.428-.123.78q3.123,4.373,6.2,8.777c.255.363.444.4.791.142.665-.487,1.356-.938,2.036-1.4.455-.312.934-.422,1.286.094s.088.916-.373,1.233c-1,.688-2,1.375-2.976,2.086a.874.874,0,0,1-1.423-.264c-.784-1.116-.8-1.107-1.89-.332-.42.3-.826.619-1.258.9a1.774,1.774,0,0,0-.995,1.36.715.715,0,0,1-.96.637c-.53-.121-.614-.5-.579-1.01a2.371,2.371,0,0,1,1.235-2.062c.819-.482,1.548-1.113,2.342-1.642.347-.229.359-.4.126-.726q-2.142-3.031-4.242-6.092c-.25-.365-.427-.38-.776-.117-.863.652-1.779,1.232-2.639,1.89a1.354,1.354,0,0,1-1.694.173c-.4-.235-.87-.34-1.263-.577a12.112,12.112,0,0,0-6.076-1.485c-.747-.025-1.492-.127-2.239-.135-.837-.011-1.362.4-1.423,1.014-.064.657.39,1.161,1.233,1.3,1.5.256,3,.486,4.5.73.2.033.4.1.6.122.569.063.856.383.761.939-.1.574-.519.718-1.048.628l-3.963-.663c-.406-.067-.814-.13-1.22-.2a2.717,2.717,0,0,1-2.444-2.946,2.686,2.686,0,0,1,2.736-2.517C192.989,8802.512,193.17,8802.521,193.508,8802.521Z" fill="#fff"/>
    <path id="Path_126" data-name="Path 126" d="M203.8,8828.123c-.755-.376-1.14.111-1.625.806-.914,1.308-2.847,1.393-4.213-.134a.71.71,0,0,1,.027-.987.769.769,0,0,1,.985-.178,5.362,5.362,0,0,1,.7.485.889.889,0,0,0,1.3-.205.862.862,0,0,0-.083-1.253c-.4-.4-.843-.76-1.269-1.134-.4-.353-.571-.767-.185-1.208s.8-.359,1.23-.024q1.248.979,2.512,1.935c.582.439,1.136.41,1.495-.053.39-.5.264-1.033-.387-1.5-1.49-1.061-2.989-2.11-4.483-3.166-.766-.541-.962-.977-.588-1.415.551-.645,1.053-.224,1.546.123q2.149,1.513,4.3,3.025c.744.521,1.312.5,1.682-.033s.2-1-.54-1.526c-1.807-1.283-3.612-2.567-5.431-3.835-.49-.341-.9-.721-.5-1.317.443-.664.969-.337,1.46.014q2.172,1.548,4.352,3.085c.715.5,1.244.481,1.618-.047s.2-1.05-.507-1.542q-4.127-2.87-8.257-5.731c-.148-.1-.293-.211-.443-.31a.8.8,0,0,1-.294-1.2c.314-.469.78-.426,1.22-.122q1.719,1.185,3.433,2.374,2.636,1.831,5.267,3.665a2.59,2.59,0,0,1,.341,4.359.479.479,0,0,0-.171.58c.482,1.684.064,2.688-1.459,3.415-.354.169-.322.385-.351.661A2.521,2.521,0,0,1,203.8,8828.123Z" fill="#fff"/>
    <path id="Path_127" data-name="Path 127" d="M182.582,8799.065a1.342,1.342,0,0,1,.839.271c.949.668,1.892,1.343,2.856,1.988.4.271.594.612.386,1.042-.174.356-.041.485.232.657.5.313.986.658,1.475,1a.782.782,0,0,1,.29,1.191.817.817,0,0,1-1.174.147c-.09-.051-.17-.117-.258-.169-.573-.336-1.125-1.093-1.671-.967-.469.109-.773.956-1.137,1.486-1.108,1.614-2.2,3.238-3.321,4.846-.236.34-.254.533.129.784.97.635,1.912,1.313,2.858,1.983a2.085,2.085,0,0,1,.592,2,.731.731,0,0,1-.727.478c-.355,0-.717-.149-.738-.541-.036-.677-.513-.953-.978-1.27-.638-.437-1.279-.871-1.9-1.329-.3-.219-.464-.275-.731.088-1.13,1.532-1.146,1.521-2.764.418-.66-.45-1.318-.9-1.979-1.351-.5-.339-.845-.751-.426-1.344.384-.542.866-.423,1.349-.082.632.445,1.293.85,1.916,1.308.348.256.533.213.776-.146q2.992-4.415,6.027-8.8c.254-.368.148-.521-.159-.721q-1.069-.7-2.117-1.425a.811.811,0,0,1-.306-1.025A.715.715,0,0,1,182.582,8799.065Z" fill="#fff"/>
  </g>
</svg>
