<svg xmlns="http://www.w3.org/2000/svg" width="65.061" height="65.062" viewBox="0 0 65.061 65.062">
  <g id="Group_109" data-name="Group 109" transform="translate(-680.451 -8780.507)">
    <path id="Path_167" data-name="Path 167" d="M680.451,8797.857v-.868c.722-.816,1.331-.626,2.032.1,1.663,1.734,3.408,3.39,5.075,5.12.545.565.882.66,1.481.039a11.8,11.8,0,0,1,3.836-2.762,13.427,13.427,0,0,0,3.815-2.986c.551-.513.535-.779-.026-1.335a3.01,3.01,0,0,1,1.329-5.116,1.306,1.306,0,0,0,1-1.021c.407-1.29,1.5-1.746,2.628-2.379.91-.51.893-2.279,2.247-2.759a1.7,1.7,0,0,1,.537-.185c.508.015.647-.3.744-.7a3.955,3.955,0,0,1,2.19-2.5h4.915c.125.351.53.679.338,1.048-.56,1.075.254,1.281.928,1.593,1.7.779,3.407,1.53,5.091,2.336a16.077,16.077,0,0,1,7.913,7.459,15.9,15.9,0,0,0,2.992,3.808c.522.564.785.509,1.333-.038a3.007,3.007,0,0,1,5.109,1.349,1.293,1.293,0,0,0,1.029.992c1.294.409,1.716,1.538,2.376,2.628.567.937,2.361.952,2.817,2.383a1.246,1.246,0,0,1,.128.4c-.03.509.3.649.7.746a3.977,3.977,0,0,1,2.5,2.186v4.916c-.3.12-.7.43-.9.334-1.3-.631-1.521.41-1.878,1.174a54.431,54.431,0,0,1-3.622,7.314c-.285.429-.169.666.145.971q3.133,3.045,6.25,6.11v.867c-.726.822-1.336.622-2.037-.108-1.667-1.737-3.395-3.418-5.1-5.121-.368-.368-.684-.879-1.257-.205-1.787,2.1-4.537,2.849-6.564,4.621a.836.836,0,0,1-1.277-.1.8.8,0,0,1-.008-1.171,5.2,5.2,0,0,1,1.752-1.459,14.842,14.842,0,0,0,7.783-7.579,83.4,83.4,0,0,1,4.442-8.88c.429-.683.572-1.381-.258-1.859-.885-.509-1.434-.016-1.862.741-.662,1.172-1.326,2.343-2.021,3.5-.356.591-.68,1.5-1.6.974-.866-.494-.4-1.234-.029-1.875.863-1.5,1.716-3,2.587-4.5.417-.718.727-1.427-.215-1.963-.891-.508-1.422-.034-1.849.738q-1.012,1.83-2.089,3.623c-.316.527-.652,1.205-1.439.794-.834-.437-.552-1.095-.187-1.722.942-1.621,1.873-3.248,2.819-4.867a1.087,1.087,0,0,0-.4-1.7,1.074,1.074,0,0,0-1.668.509c-.593,1.045-1.183,2.093-1.824,3.109-.4.638-.653,1.81-1.722,1.239s-.28-1.415.093-2.093c.719-1.3,1.477-2.587,2.217-3.88.4-.7.776-1.384-.159-1.984-1.024-.657-1.483.07-1.951.772q-2.042,3.062-4.072,6.128a12.959,12.959,0,0,1-6.182,5c-.593.236-1.07.171-1.324-.4a.933.933,0,0,1,.565-1.3c.476-.225.953-.448,1.435-.661.567-.252.5-.512.129-.947-1.239-1.449-1.987-1.414-2.974.281-.627,1.076-1.186,2.194-1.723,3.319-.23.482-.5.9-1.054.771a.978.978,0,0,1-.755-1.213c.04-.306.393-.582.08-.956-2.209,1.319-4.491,2.362-7.351,1.271,1.417,2.489,2.535,4.776,1.431,7.55,4.227-2.046,4.23-2.046,7.453-1.509-.269-.533-.525-1.048-.789-1.56-.308-.6-.529-1.223.211-1.629.781-.43,1.138.185,1.426.758a36.772,36.772,0,0,0,3.44,5.323c1.94,2.614,1.757,2.182-.316,4.287-1.269,1.287-1.317,1.335.215,2.411,2.4,1.688,4.859,3.289,7.291,4.93a2.778,2.778,0,0,1,1.369,2.953,2.963,2.963,0,0,1-2.192,2.585c-.511.135-.844.277-1,.849a3.712,3.712,0,0,1-2.543,2.463c-1.047.431-.859,2.313-2.231,2.777a2.363,2.363,0,0,1-.668.247c-.5,0-.66.293-.756.7a3.955,3.955,0,0,1-2.188,2.51H713.7c-.121-.3-.43-.7-.334-.9.637-1.309-.423-1.518-1.176-1.873a54.689,54.689,0,0,1-7.314-3.626c-.429-.287-.666-.168-.969.146q-3.047,3.133-6.111,6.249h-.867c-.816-.723-.627-1.331.1-2.032,1.734-1.663,3.388-3.409,5.12-5.073.572-.55.644-.889.038-1.482a11.766,11.766,0,0,1-2.685-3.717,13.4,13.4,0,0,0-3.061-3.937c-.525-.544-.782-.522-1.336.033a3.005,3.005,0,0,1-5.108-1.345,1.3,1.3,0,0,0-1.03-.992c-1.291-.41-1.722-1.528-2.378-2.626-.56-.938-2.358-.957-2.819-2.383a1.246,1.246,0,0,1-.127-.406c.031-.509-.3-.65-.7-.746a3.973,3.973,0,0,1-2.5-2.187v-4.915c.257-.117.579-.4.76-.325,1.482.592,1.73-.536,2.137-1.463.1-.22.2-.437.294-.656.288-.661.752-1.061,1.469-.7.687.347.518.947.232,1.489-.761,1.443-1.553,2.871-2.309,4.318-.422.807-1.322,1.711,0,2.44,1.182.651,1.583-.4,2.04-1.187.631-1.078,1.238-2.171,1.886-3.238.343-.566.712-1.33,1.542-.777.747.5.373,1.169.024,1.774-.889,1.539-1.761,3.09-2.66,4.625-.434.74-.66,1.442.286,1.939.914.48,1.41-.048,1.829-.808.627-1.137,1.293-2.252,1.959-3.366.356-.595.635-1.491,1.582-.973.927.507.417,1.219.052,1.851-.89,1.54-1.775,3.083-2.676,4.616-.438.744-.427,1.361.4,1.816.766.422,1.264.111,1.656-.574.692-1.209,1.409-2.405,2.1-3.614.337-.589.747-1.12,1.471-.693s.455,1.07.129,1.643c-.834,1.461-1.678,2.916-2.519,4.373-.411.712-.713,1.393.229,1.968.961.585,1.407-.058,1.852-.726q2.079-3.12,4.15-6.248a13.168,13.168,0,0,1,5.934-4.88c.606-.261,1.255-.438,1.563.376.255.673-.147,1.075-.755,1.331a5.077,5.077,0,0,0-1.746.966c1.684,2.245,2.19,2.226,3.573-.134.267-.456.495-.937.789-1.376a4.423,4.423,0,0,0,.163-4.778,36.927,36.927,0,0,0-3.159-4.991c-2.01-2.772-2.033-2.8.359-5.264.665-.684.588-1.1-.108-1.584-1.7-1.18-3.421-2.324-5.083-3.555-.705-.521-1.129-.416-1.681.2a15.53,15.53,0,0,1-4.958,3.854,12.2,12.2,0,0,0-5.057,4.825c-.352.572-.678,1.162-1.005,1.749s-.817.855-1.43.48c-.58-.355-.458-.884-.171-1.392.379-.669.716-1.367,1.153-2a.781.781,0,0,0-.109-1.214C684.556,8801.9,682.509,8799.871,680.451,8797.857Zm26.508,5.569c-2.252,1.667-2.234,2.154.132,3.55.455.27.934.5,1.371.8a4.422,4.422,0,0,0,4.774.169,35.931,35.931,0,0,0,4.986-3.156c2.791-2.026,2.818-2.047,5.264.333.654.636,1.07.671,1.58-.069,1.172-1.7,2.328-3.417,3.553-5.08.5-.677.454-1.077-.146-1.689-1.033-1.054-2.346-1.88-2.97-3.294a15.152,15.152,0,0,0-7.718-7.834,77.234,77.234,0,0,1-8.746-4.38c-.672-.425-1.374-.6-1.864.229-.515.867-.063,1.441.7,1.874,1.212.686,2.426,1.369,3.619,2.087.558.335,1.37.677.906,1.514-.486.876-1.223.45-1.867.078l-4.745-2.731c-.658-.378-1.276-.462-1.73.3a1.17,1.17,0,0,0,.546,1.8c1.248.72,2.509,1.417,3.747,2.155.566.336,1.311.681.792,1.539-.5.823-1.15.413-1.746.068-1.581-.912-3.163-1.821-4.737-2.747-.675-.4-1.26-.446-1.726.3-.5.8-.213,1.348.536,1.776q1.625.933,3.234,1.892c.639.38,1.626.7,1.024,1.677-.579.936-1.351.252-2-.112-1.34-.753-2.668-1.525-4-2.291-.714-.411-1.391-.7-1.961.245-.583.97.073,1.4.735,1.845,2.038,1.36,4.071,2.729,6.123,4.068a13.226,13.226,0,0,1,4.939,5.877c.275.62.59,1.342-.31,1.7-.748.294-1.109-.217-1.382-.874A4.022,4.022,0,0,0,706.959,8803.427Zm12.03,19.387c.411-.391.66-.615.9-.852,1.107-1.1,1.084-1.494-.261-2.413-.711-.487-1.5-.853-2.234-1.313a4.354,4.354,0,0,0-4.516-.164,35.244,35.244,0,0,0-5.238,3.29c-2.705,1.949-2.741,1.982-5.143-.4-.76-.752-1.181-.558-1.678.156-1.1,1.578-2.152,3.188-3.31,4.722a1.339,1.339,0,0,0,.173,2.152,10.106,10.106,0,0,1,2.776,3.079,15.213,15.213,0,0,0,7.841,7.9,72.333,72.333,0,0,1,8.612,4.32c.665.42,1.366.618,1.867-.212.522-.866.082-1.443-.685-1.879-1.211-.688-2.426-1.369-3.619-2.087-.556-.334-1.374-.672-.917-1.511.479-.88,1.217-.463,1.864-.09l4.745,2.732c.654.376,1.274.475,1.732-.285a1.168,1.168,0,0,0-.533-1.8c-1.248-.72-2.51-1.418-3.747-2.156-.561-.335-1.319-.671-.808-1.534.49-.824,1.142-.434,1.743-.086,1.58.913,3.163,1.824,4.738,2.747.744.437,1.364.417,1.807-.416.411-.771.084-1.266-.6-1.652-1.169-.664-2.33-1.342-3.491-2.02-.594-.348-1.288-.735-.8-1.551s1.175-.383,1.764-.049c1.421.8,2.829,1.63,4.243,2.444.71.41,1.389.719,1.965-.229s-.052-1.4-.72-1.848c-2.038-1.36-4.072-2.728-6.122-4.069a13.02,13.02,0,0,1-4.876-5.745c-.288-.65-.748-1.415.228-1.825.836-.351,1.167.318,1.442.991C718.35,8821.691,718.655,8822.178,718.989,8822.813Z" fill="#fff"/>
    <path id="Path_168" data-name="Path 168" d="M729.03,8780.507a1.135,1.135,0,0,1,0,1.927c-1.329,1.249-2.591,2.57-3.882,3.86-.468.467-.942.889-1.572.22s-.142-1.124.3-1.583q2.142-2.213,4.288-4.424Z" fill="#fff"/>
  </g>
</svg>
