<svg xmlns="http://www.w3.org/2000/svg" xmlns:xlink="http://www.w3.org/1999/xlink" width="459.898" height="178.175" viewBox="0 0 459.898 178.175">
  <defs>
    <linearGradient id="linear-gradient" y1="0.5" x2="1" y2="0.5" gradientUnits="objectBoundingBox">
      <stop offset="0" stop-color="#000f2a" stop-opacity="0.302"/>
      <stop offset="0.366" stop-color="#000f2a" stop-opacity="0.4"/>
      <stop offset="0.744" stop-color="#000f2a" stop-opacity="0.694"/>
      <stop offset="1" stop-color="#000f2a"/>
    </linearGradient>
    <linearGradient id="linear-gradient-2" y1="0.5" x2="1" y2="0.5" gradientUnits="objectBoundingBox">
      <stop offset="0" stop-color="#000f2a" stop-opacity="0.8"/>
      <stop offset="1" stop-color="#000f2a" stop-opacity="0.302"/>
    </linearGradient>
    <linearGradient id="linear-gradient-3" y1="0.5" x2="1" y2="0.5" gradientUnits="objectBoundingBox">
      <stop offset="0" stop-color="#000f2a" stop-opacity="0.302"/>
      <stop offset="0.566" stop-color="#000f2a" stop-opacity="0.4"/>
      <stop offset="1" stop-color="#000f2a" stop-opacity="0.6"/>
    </linearGradient>
  </defs>
  <g id="Group_27" data-name="Group 27" transform="translate(-1939.965 -55.26)">
    <g id="Group_24" data-name="Group 24">
      <g id="Group_23" data-name="Group 23">
        <path id="Path_4" data-name="Path 4" d="M1939.966,137.735V65.283a10.053,10.053,0,0,1,10.09-10.023h133.293Z" fill="url(#linear-gradient)"/>
      </g>
      <path id="Path_5" data-name="Path 5" d="M1939.966,137.735v-72.3h0l143.384,82.486v70.394Z" fill="url(#linear-gradient-2)"/>
      <path id="Path_6" data-name="Path 6" d="M2083.348,147.918v70.523a10.144,10.144,0,0,1-10.121,10.075H1939.966Z" fill="url(#linear-gradient-3)"/>
    </g>
    <g id="Group_25" data-name="Group 25">
      <path id="Path_7" data-name="Path 7" d="M2153.808,170.056c-8.287,0-10.529-4.1-11.017-9.067H2123.78c.585,15.111,10.529,23.3,30.028,23.3,17.939,0,28.078-10.432,28.078-23.2,0-15.111-9.067-19.693-26.713-21.643-8.677-1.17-10.822-2.925-10.822-6.825,0-3.51,2.73-5.947,8.092-5.947,5.46,0,8.287,2.535,8.969,7.507h18.524c-1.267-14.721-10.724-21.741-27.493-21.741-16.671,0-27.005,9.165-27.005,21.741,0,14.039,6.629,19.889,26.323,22.229,8.384,1.267,11.016,2.437,11.016,6.727C2162.777,167.228,2159.56,170.056,2153.808,170.056Z" fill="#000f2a"/>
      <path id="Path_8" data-name="Path 8" d="M2215.482,177.173v5.947h16.964V150.069c0-13.551-8.969-19.3-23.008-19.3-13.942,0-23.594,6.044-24.374,18.329h16.379c.39-3.218,2.145-6.045,6.922-6.045,5.557,0,6.727,3.217,6.727,8.092v1.17h-4.874c-16.964,0-27.1,4.679-27.1,16.671,0,10.822,8.092,15.307,17.257,15.307C2208.56,184.29,2213.045,180.877,2215.482,177.173Zm-4.972-15.014h4.582v3.119c0,4.388-3.705,7.215-8.677,7.215-4.094,0-6.044-1.853-6.044-4.777C2200.371,163.523,2203.49,162.159,2210.51,162.159Z" fill="#000f2a"/>
      <path id="Path_9" data-name="Path 9" d="M2289.2,183.12V149.972c0-13.064-6.825-19.206-16.672-19.206-8.482,0-14.039,4.29-16.768,9.554v-8.189H2238.3V183.12h17.452V154.554c0-6.532,3.509-9.652,8.676-9.652,5.07,0,7.312,2.828,7.312,8.58V183.12Z" fill="#000f2a"/>
      <path id="Path_10" data-name="Path 10" d="M2319.421,152.312c-16.963,0-27.1,4.679-27.1,16.671,0,10.822,8.092,15.307,17.257,15.307,8.189,0,12.674-3.413,15.111-7.117v5.947h16.964V150.069c0-13.551-8.97-19.3-23.009-19.3-13.941,0-23.593,6.044-24.373,18.329h16.379c.39-3.218,2.145-6.045,6.922-6.045,5.557,0,6.727,3.217,6.727,8.092v1.17Zm4.875,12.966c0,4.388-3.7,7.215-8.677,7.215-4.095,0-6.044-1.853-6.044-4.777,0-4.193,3.119-5.557,10.139-5.557h4.582Z" fill="#000f2a"/>
      <path id="Path_11" data-name="Path 11" d="M2382.412,109.707v29.638c-2.925-5.167-7.7-8.579-15.7-8.579-12.089,0-21.643,9.262-21.643,26.615v.78c0,17.647,9.652,26.129,21.448,26.129,7.7,0,13.357-4.193,15.892-9.457v8.287h17.451V109.707Zm.487,48.162c0,8.677-3.9,13.064-10.237,13.064-6.044,0-9.846-4.387-9.846-12.967v-.78c0-8.871,3.509-13.259,10.041-13.259,6.435,0,10.042,4.583,10.042,13.162Z" fill="#000f2a"/>
    </g>
    <g id="Group_26" data-name="Group 26">
      <path id="Path_12" data-name="Path 12" d="M2130.348,208.866h4.783l6.485,19.65h-3.793l-1.566-4.864h-7.5l-1.54,4.864h-3.435Zm-.742,12.12h5.8l-2.886-9.124Z" fill="#000f2a"/>
      <path id="Path_13" data-name="Path 13" d="M2150.331,208.866h4.891l5.167,13.411,5.057-13.411h4.836v19.65h-3.655v-14.84l-5.853,14.84h-1.182l-5.964-14.84v14.84h-3.3Z" fill="#000f2a"/>
      <path id="Path_14" data-name="Path 14" d="M2173.735,223.349v-9.206h3.325v8.822c0,2.17.907,3.16,2.831,3.16a3.206,3.206,0,0,0,3.352-3.435v-8.547h3.326v14.373h-3.326v-2.254a4.838,4.838,0,0,1-4.561,2.528C2175.851,228.79,2173.735,227.169,2173.735,223.349Z" fill="#000f2a"/>
      <path id="Path_15" data-name="Path 15" d="M2193.016,226.207v2.309h-3.326V207.492h3.326v8.959a5.552,5.552,0,0,1,4.7-2.61c3.6,0,6.376,2.666,6.376,7.309v.221c0,4.617-2.666,7.419-6.376,7.419A5.124,5.124,0,0,1,2193.016,226.207Zm7.667-4.781v-.22c0-3.188-1.649-4.755-3.82-4.755-2.308,0-3.957,1.567-3.957,4.755v.22c0,3.215,1.567,4.726,3.985,4.726C2199.337,226.152,2200.683,224.5,2200.683,221.426Z" fill="#000f2a"/>
      <path id="Path_16" data-name="Path 16" d="M2205.45,224.531c0-3.353,3.242-4.562,7.365-4.562h1.786v-.742c0-1.924-.66-2.886-2.611-2.886-1.731,0-2.583.825-2.748,2.254h-3.215c.275-3.353,2.941-4.754,6.156-4.754s5.743,1.319,5.743,5.249v9.426h-3.27v-1.759a5,5,0,0,1-4.4,2.033C2207.62,228.79,2205.45,227.526,2205.45,224.531Zm9.151-1.045v-1.428h-1.7c-2.528,0-4.15.577-4.15,2.336,0,1.209.66,2.005,2.309,2.005C2213.09,226.4,2214.6,225.328,2214.6,223.486Z" fill="#000f2a"/>
      <path id="Path_17" data-name="Path 17" d="M2220.179,221.563v-.22c0-4.589,2.72-7.5,6.458-7.5a4.914,4.914,0,0,1,4.59,2.5v-8.849h3.325v21.024h-3.325V226.1a5.512,5.512,0,0,1-4.727,2.692C2222.9,228.79,2220.179,226.235,2220.179,221.563Zm11.158-.165v-.22c0-3.16-1.457-4.727-3.876-4.727-2.445,0-3.874,1.7-3.874,4.81v.22c0,3.16,1.593,4.671,3.737,4.671C2229.633,226.152,2231.337,224.613,2231.337,221.4Z" fill="#000f2a"/>
      <path id="Path_18" data-name="Path 18" d="M2236.819,224.531c0-3.353,3.242-4.562,7.365-4.562h1.786v-.742c0-1.924-.66-2.886-2.611-2.886-1.731,0-2.583.825-2.748,2.254H2237.4c.274-3.353,2.941-4.754,6.155-4.754s5.744,1.319,5.744,5.249v9.426h-3.27v-1.759a5,5,0,0,1-4.4,2.033C2238.989,228.79,2236.819,227.526,2236.819,224.531Zm9.151-1.045v-1.428h-1.7c-2.528,0-4.15.577-4.15,2.336,0,1.209.66,2.005,2.309,2.005C2244.459,226.4,2245.97,225.328,2245.97,223.486Z" fill="#000f2a"/>
      <path id="Path_19" data-name="Path 19" d="M2252.386,207.492h3.325v21.024h-3.325Z" fill="#000f2a"/>
      <path id="Path_20" data-name="Path 20" d="M2258.017,224.531c0-3.353,3.243-4.562,7.365-4.562h1.786v-.742c0-1.924-.659-2.886-2.61-2.886-1.732,0-2.584.825-2.749,2.254h-3.214c.274-3.353,2.94-4.754,6.155-4.754s5.744,1.319,5.744,5.249v9.426h-3.271v-1.759a5,5,0,0,1-4.4,2.033C2260.188,228.79,2258.017,227.526,2258.017,224.531Zm9.151-1.045v-1.428h-1.7c-2.528,0-4.149.577-4.149,2.336,0,1.209.659,2.005,2.308,2.005C2265.657,226.4,2267.168,225.328,2267.168,223.486Z" fill="#000f2a"/>
      <path id="Path_21" data-name="Path 21" d="M2279.318,218.814V218.6c0-5.909,4.067-10.031,9.536-10.031,4.507,0,8,2.254,8.437,6.871h-3.71c-.412-2.611-1.869-3.958-4.7-3.958-3.462,0-5.715,2.694-5.715,7.09v.22c0,4.425,2.115,7.035,5.744,7.035,2.72,0,4.643-1.373,5.028-4.149h3.573c-.577,4.726-3.93,7.117-8.6,7.117C2282.753,228.79,2279.318,224.861,2279.318,218.814Z" fill="#000f2a"/>
      <path id="Path_22" data-name="Path 22" d="M2299.053,221.481v-.22a7.379,7.379,0,0,1,14.757-.083v.22a7.379,7.379,0,0,1-14.757.083Zm11.349-.055v-.192c0-2.968-1.483-4.783-3.957-4.783s-3.985,1.786-3.985,4.755v.22c0,2.94,1.457,4.781,3.985,4.781C2308.919,226.207,2310.4,224.366,2310.4,221.426Z" fill="#000f2a"/>
      <path id="Path_23" data-name="Path 23" d="M2316.084,214.143h3.326v2.2a4.822,4.822,0,0,1,4.37-2.5,4.035,4.035,0,0,1,4.066,2.583,5.675,5.675,0,0,1,4.865-2.583c2.638,0,4.782,1.621,4.782,5.578v9.1h-3.326v-8.877c0-2.116-.906-3.022-2.555-3.022a3.064,3.064,0,0,0-3.161,3.3v8.6h-3.325v-8.877c0-2.116-.935-3.022-2.556-3.022a3.064,3.064,0,0,0-3.16,3.3v8.6h-3.326Z" fill="#000f2a"/>
      <path id="Path_24" data-name="Path 24" d="M2340.582,214.143h3.325v2.308a5.554,5.554,0,0,1,4.7-2.61c3.6,0,6.375,2.666,6.375,7.309v.221c0,4.617-2.666,7.419-6.375,7.419a5.194,5.194,0,0,1-4.7-2.528v7.173h-3.325Zm10.992,7.283v-.22c0-3.188-1.649-4.755-3.819-4.755-2.309,0-3.958,1.567-3.958,4.755v.22c0,3.215,1.567,4.726,3.985,4.726C2350.228,226.152,2351.574,224.5,2351.574,221.426Z" fill="#000f2a"/>
      <path id="Path_25" data-name="Path 25" d="M2356.342,224.531c0-3.353,3.243-4.562,7.365-4.562h1.786v-.742c0-1.924-.659-2.886-2.61-2.886-1.731,0-2.584.825-2.749,2.254h-3.214c.274-3.353,2.94-4.754,6.155-4.754s5.744,1.319,5.744,5.249v9.426h-3.271v-1.759a5,5,0,0,1-4.4,2.033C2358.513,228.79,2356.342,227.526,2356.342,224.531Zm9.151-1.045v-1.428h-1.7c-2.528,0-4.149.577-4.149,2.336,0,1.209.659,2.005,2.308,2.005C2363.982,226.4,2365.493,225.328,2365.493,223.486Z" fill="#000f2a"/>
      <path id="Path_26" data-name="Path 26" d="M2371.873,214.143h3.326v2.281a4.949,4.949,0,0,1,4.644-2.583c2.886,0,4.919,1.676,4.919,5.634v9.041h-3.324v-8.739c0-2.172-.88-3.16-2.859-3.16a3.186,3.186,0,0,0-3.38,3.435v8.464h-3.326Z" fill="#000f2a"/>
      <path id="Path_27" data-name="Path 27" d="M2391.371,227.06l-5.689-12.917h3.6l3.82,9.261,3.518-9.261h3.243l-7.832,19.292h-3.271Z" fill="#000f2a"/>
    </g>
  </g>
</svg>
