<svg xmlns="http://www.w3.org/2000/svg" width="68.059" height="68.931" viewBox="0 0 68.059 68.931">
  <g id="Group_155" data-name="Group 155" transform="translate(-1378.866 -7160.879)">
    <g id="Group_152" data-name="Group 152" opacity="0.6">
      <path id="Path_178" data-name="Path 178" d="M1421.1,7193.809c-13.36-10.6-26.637-21.308-39.95-31.969-.549-.44-1.092-1.3-1.889-.821-.592.354-.341,1.216-.341,1.86q-.013,16.152-.007,32.3h.044q0,15.78,0,31.559c0,.663-.022,1.329.042,1.986.12,1.214.61,1.4,1.57.581,1.693-1.452,3.437-2.846,5.164-4.259,11.66-9.535,23.79-18.481,35.325-28.176C1422.448,7195.706,1422.744,7195.115,1421.1,7193.809Z" fill="#d93422"/>
      <path id="Path_179" data-name="Path 179" d="M1445.716,7193.425c-11.018-8.748-21.97-17.578-32.946-26.379a2.42,2.42,0,0,0-1.494-.8c-4.036,0-8.073,0-12.7,0,1.607,1.336,2.723,2.291,3.868,3.211q15.1,12.126,30.224,24.214c1.366,1.085,1.342,1.663,0,2.733q-15.438,12.29-30.786,24.7c-.394.317-1.131.5-.737,1.357,3.707,0,7.431-.027,11.154.018a3.684,3.684,0,0,0,2.457-.986c10.314-8.3,20.611-16.629,30.981-24.863C1447.36,7195.335,1447.288,7194.673,1445.716,7193.425Z" fill="#d93422"/>
    </g>
    <g id="Group_154" data-name="Group 154">
      <g id="Group_153" data-name="Group 153">
        <path id="Path_180" data-name="Path 180" d="M1390.49,7202.148l5.376-5.675c1.355-1.434,2.171-2.688,2.171-4.042a1.97,1.97,0,0,0-2.131-2.171c-1.414,0-2.309.816-2.549,2.828h-2.429c.179-3.107,2.051-4.9,5.058-4.9,2.947,0,4.7,1.693,4.7,4.2,0,1.852-1.1,3.464-2.789,5.1l-3.166,3.087h6.054v2.051h-10.3Z" fill="#fff"/>
      </g>
    </g>
  </g>
</svg>
