<svg xmlns="http://www.w3.org/2000/svg" width="68.059" height="68.932" viewBox="0 0 68.059 68.932">
  <g id="Group_151" data-name="Group 151" transform="translate(-1378.866 -7001.56)">
    <g id="Group_148" data-name="Group 148" opacity="0.6">
      <path id="Path_175" data-name="Path 175" d="M1421.1,7034.49c-13.36-10.6-26.637-21.308-39.95-31.97-.549-.439-1.092-1.3-1.889-.82-.592.354-.341,1.215-.341,1.86q-.013,16.152-.007,32.3h.044q0,15.78,0,31.559c0,.662-.022,1.329.042,1.986.12,1.214.61,1.4,1.57.581,1.693-1.452,3.437-2.847,5.164-4.259,11.66-9.535,23.79-18.481,35.325-28.176C1422.448,7036.387,1422.744,7035.8,1421.1,7034.49Z" fill="#d93422"/>
      <path id="Path_176" data-name="Path 176" d="M1445.716,7034.106c-11.018-8.748-21.97-17.579-32.946-26.379a2.42,2.42,0,0,0-1.494-.8c-4.036,0-8.073,0-12.7,0,1.607,1.336,2.723,2.291,3.868,3.211q15.1,12.126,30.224,24.214c1.366,1.085,1.342,1.663,0,2.733q-15.438,12.289-30.786,24.694c-.394.318-1.131.5-.737,1.358,3.707,0,7.431-.027,11.154.018a3.684,3.684,0,0,0,2.457-.986c10.314-8.3,20.611-16.63,30.981-24.863C1447.36,7036.016,1447.288,7035.354,1445.716,7034.106Z" fill="#d93422"/>
    </g>
    <g id="Group_150" data-name="Group 150">
      <g id="Group_149" data-name="Group 149">
        <path id="Path_177" data-name="Path 177" d="M1393.835,7029.323l-3.007,2.051v-2.329l3.306-2.35h2.37v14.238h-2.669Z" fill="#fff"/>
      </g>
    </g>
  </g>
</svg>
